<svg width="297" height="24" viewBox="0 0 297 24" fill="none" xmlns="http://www.w3.org/2000/svg">
<path fill-rule="evenodd" clip-rule="evenodd" d="M177.39 0.163916C172.208 1.34576 169.011 6.03374 169 12.4645C168.993 16.8841 170.74 20.7636 173.711 22.9244C175.19 23.9993 175.193 24 179.131 24C183.441 24 185.131 23.5545 185.951 22.2036C186.902 20.6345 187.423 14.7511 186.734 13.3598C185.67 11.2102 180.021 11.2556 180.021 13.4134C180.021 13.7592 180.366 14.5906 180.787 15.2611C181.661 16.6534 181.735 17.3157 181.118 18.2278C180.502 19.1386 178.218 19.1081 177.058 18.1735C175.434 16.8653 174.968 15.5457 174.968 12.2511C174.969 8.78034 175.524 7.18878 177.104 6.13369C178.395 5.27122 180.464 5.26924 182.318 6.1284C185.041 7.38967 186.453 6.70194 186.453 4.11354C186.453 2.60041 185.603 1.39805 184.062 0.731836C182.579 0.0904437 179.035 -0.211057 177.39 0.163916ZM266.489 0.165902C263.464 0.858261 260.765 3.23022 259.386 6.41037C258.642 8.1234 258.575 8.62546 258.581 12.4166C258.588 17.2081 259.009 18.6061 261.226 21.2047C263.431 23.7905 264.23 24.0662 269.151 23.9418C272.874 23.8474 273.49 23.7511 274.249 23.1428C275.453 22.1778 275.84 21.1591 276.209 17.9849C276.76 13.2373 276.167 12.1713 272.786 11.84C269.831 11.5504 268.56 13.095 270.059 15.1545C271.511 17.1489 270.312 19.3468 268.025 18.8831C265.385 18.3479 264.237 16.3258 264.247 12.2292C264.262 6.37992 266.861 4.2863 271.753 6.18234C273.996 7.05143 275.036 6.86312 275.561 5.49263C276.271 3.64127 275.132 1.38349 273.063 0.538889C271.863 0.0487434 267.966 -0.172335 266.489 0.165902ZM199.055 0.750369C198.098 1.62442 197.109 4.04172 195.078 10.4772C194.064 13.6881 192.88 17.0711 192.447 17.9955C192.014 18.9195 191.659 20.0603 191.659 20.5303C191.659 22.3664 193.092 24 194.702 24C195.798 24 196.644 22.845 197.144 20.6663C197.719 18.1666 198.279 17.7241 200.875 17.7168C202.967 17.7109 203.338 18.0858 204.075 20.9532C204.396 22.2052 204.864 23.2285 205.246 23.5181C206.554 24.5083 209.167 23.8375 209.89 22.3257C210.494 21.0638 210.457 20.0848 209.748 18.5826C209.423 17.8925 208.079 14.0472 206.763 10.0376C203.943 1.44438 203.2 0.171197 201.01 0.171197C200.198 0.171197 199.445 0.394261 199.055 0.750369ZM216.149 0.775853L215.393 1.43677L215.494 9.65705C215.578 16.5462 215.515 18.1146 215.105 19.3431C214.146 22.2195 215.679 24.2565 218.542 23.9077C220.106 23.717 221.411 22.5517 221.449 21.3126C221.462 20.8794 221.37 19.7059 221.245 18.7047C221.072 17.3243 221.125 16.7276 221.464 16.2351C222.083 15.3356 222.47 15.743 224.692 19.643C226.637 23.0574 227.653 24 229.383 24C231.989 24 232.549 21.8531 230.608 19.3133C229.964 18.4717 229.034 16.9483 228.54 15.9277C227.543 13.8635 227.485 14.162 229.473 11.0861C230.213 9.94101 230.404 9.26619 230.492 7.48896C230.634 4.61328 229.775 2.75662 227.645 1.32954C226.194 0.358187 226.061 0.334358 221.533 0.225474C217.275 0.123539 216.843 0.167556 216.149 0.775853ZM243.048 1.08132C241.923 2.38132 241.588 3.20474 239.179 10.5963C237.992 14.2368 236.722 17.8499 236.356 18.6253C235.871 19.6546 235.745 20.3416 235.889 21.1703C236.257 23.2871 238.745 24.7013 240.141 23.5863C240.426 23.3589 240.92 22.1539 241.238 20.9085C241.557 19.6635 241.965 18.4846 242.146 18.289C242.542 17.8608 245.542 17.5523 246.578 17.8333C247.347 18.0418 247.729 18.8017 248.317 21.2872C248.502 22.0702 248.922 23.0012 249.25 23.3556C250.346 24.5395 253.35 23.9282 254.125 22.3634C254.608 21.3881 254.502 19.8018 253.862 18.4433C253.545 17.7681 252.289 14.1623 251.072 10.4308C248.594 2.83208 248.277 2.06294 247.169 0.953245C246.024 -0.193847 244.1 -0.133944 243.048 1.08132ZM284.606 0.393599C282.411 0.915516 281.649 1.87661 282.025 3.64623C282.385 5.33609 282.332 15.3783 281.945 18.9969L281.577 22.4336L282.419 23.2166C283.243 23.9825 283.395 24 289.24 24H295.219L296.114 23.0326C297.169 21.8928 297.29 20.4773 296.433 19.3325C295.857 18.5641 295.853 18.5637 292.485 18.9685C290.63 19.1912 288.905 19.2872 288.651 19.1816C288.104 18.9549 287.831 18.01 287.826 16.3169C287.82 14.719 288.481 14.3248 290.694 14.6058C293.029 14.9024 293.78 14.6234 294.391 13.232C295.038 11.7566 294.79 10.3444 293.724 9.43828C293.024 8.84323 292.665 8.79325 290.489 8.98951L288.041 9.20993L288.193 7.49657C288.277 6.55401 288.447 5.67433 288.571 5.54194C288.695 5.40956 290.178 5.3437 291.867 5.39599C295.67 5.51381 296.397 5.14943 296.397 3.12696C296.397 2.15494 296.194 1.57677 295.645 0.983693C294.907 0.185759 294.806 0.171859 290.056 0.209588C287.395 0.230769 284.943 0.313508 284.606 0.393599ZM224.444 5.48403C224.932 6.01157 225.052 6.50337 224.98 7.68455C224.872 9.45285 224.056 10.3229 222.2 10.6483L221.059 10.8485V7.82653V4.80458H222.437C223.419 4.80458 223.996 5.00017 224.444 5.48403ZM201.417 10.6516C201.608 11.6832 201.765 12.6512 201.765 12.8028C201.765 13.1112 199.823 13.1857 199.547 12.8878C199.317 12.6393 200.524 8.77604 200.832 8.77604C200.962 8.77604 201.225 9.61998 201.417 10.6516ZM245.923 12.17C246.006 12.816 245.863 12.9269 244.827 13.0186C243.651 13.1225 243.639 13.1116 243.821 12.126C243.923 11.5769 244.236 10.5615 244.517 9.86919L245.028 8.61056L245.428 10.0188C245.647 10.7935 245.87 11.7616 245.923 12.17Z" fill="#3F51B5"/>
<path fill-rule="evenodd" clip-rule="evenodd" d="M25.9209 0.529759C24.3079 1.23477 22.4294 3.89793 21.7751 6.4068C21.5136 7.4084 21.3007 10.1967 21.3011 12.6034C21.3026 17.8805 22.1628 20.8947 24.2098 22.7945C25.4025 23.9018 25.5569 23.9485 28.0245 23.9485C30.347 23.9485 30.6903 23.8622 31.5694 23.0571C32.7136 22.0091 34.0477 19.566 34.0592 18.4977C34.0659 17.8769 33.9 17.7645 33.102 17.8494C32.3266 17.9317 32.0022 18.2623 31.4557 19.5275C30.5136 21.7086 29.7827 22.3277 28.1497 22.3277C25.5161 22.3277 24.3223 20.1894 23.8776 14.6747C23.5643 10.784 24.1794 5.84052 25.2099 3.96697C26.4985 1.62439 29.0602 1.33007 30.5725 3.35078C30.9125 3.80458 31.2772 5.12384 31.3835 6.28265C31.5623 8.23367 31.6416 8.38959 32.4518 8.38959C33.3231 8.38959 33.3268 8.37273 33.3268 4.49987V0.610146H32.401C31.8334 0.610146 31.4753 0.794584 31.4753 1.08664C31.4753 1.44644 31.1454 1.36702 30.1274 0.762494C28.5315 -0.185626 27.6661 -0.233599 25.9209 0.529759ZM44.4449 0.513552C41.3296 1.92455 39.8595 5.62432 39.8336 12.1172C39.8106 17.852 40.8541 21.2558 43.2251 23.1789C44.0205 23.8243 44.5608 23.9485 46.5752 23.9485C48.8481 23.9485 49.0436 23.8866 50.22 22.7945C52.3447 20.8227 53.139 17.9084 53.1305 12.1172C53.125 8.47257 52.9654 6.80355 52.4921 5.45187C50.9739 1.11322 47.639 -0.9331 44.4449 0.513552ZM128.505 0.516469C126.715 1.32553 125.832 2.83247 125.619 5.44345C125.36 8.60352 126.184 10.0531 129.59 12.4317C132.98 14.7995 133.673 15.7807 133.675 18.2111C133.677 20.4685 132.985 21.7731 131.5 22.3115C130.613 22.6331 130.198 22.626 129.364 22.2759C127.931 21.6746 127.394 20.5647 127.387 18.1949L127.382 16.169H126.271H125.16V20.0587V23.9485H126.271C127.058 23.9485 127.382 23.7919 127.382 23.412C127.382 22.9128 127.429 22.9128 128.059 23.412C128.543 23.7951 129.422 23.9485 131.137 23.9485C133.28 23.9485 133.639 23.8528 134.483 23.0571C135.747 21.8642 136.269 20.3732 136.269 17.9544C136.269 15.1908 135.241 13.607 131.856 11.1552C128.712 8.87807 128.153 8.11731 128.135 6.08784C128.112 3.36439 129.126 1.90672 131.046 1.90672C132.505 1.90672 133.306 3.1349 133.306 5.37149V7.41716H134.417H135.528V4.01365V0.610146H134.417C133.806 0.610146 133.306 0.778701 133.306 0.984532C133.306 1.20949 133.038 1.14628 132.634 0.82635C131.574 -0.0131813 129.947 -0.135059 128.505 0.516469ZM58.8771 1.40008C58.8771 2.0542 59.0837 2.2072 60.0806 2.29148L61.284 2.39293L61.3822 12.1983L61.4799 22.0036H60.1787C58.9719 22.0036 58.8771 22.0762 58.8771 23.0016V24L63.6654 23.893C67.8412 23.8 68.587 23.6992 69.4975 23.1041C72.1048 21.4004 73.0916 17.8338 72.8513 10.9827C72.6584 5.48656 71.927 3.26034 69.7697 1.60202L68.4789 0.610146H63.678H58.8771V1.40008ZM78.5027 1.40008C78.5027 2.0542 78.7094 2.2072 79.7062 2.29148L80.9097 2.39293L81.0078 12.1983L81.1055 22.0036H79.8043C78.6049 22.0036 78.5027 22.0801 78.5027 22.976V23.9485H84.6126H90.7225V20.2208V16.4932H89.6116H88.5007V19.2484V22.0036H86.0938H83.6869V17.3197V12.6359L85.8161 12.5386C87.8316 12.4466 87.9516 12.3937 88.0623 11.55C88.1789 10.6641 88.1652 10.6586 85.9331 10.6586H83.6869V6.44473V2.23086H85.9086H88.1304V4.82401V7.41716H89.2413H90.3522V4.01365V0.610146H84.4275H78.5027V1.40008ZM96.2769 1.40008C96.2769 2.0542 96.4835 2.2072 97.4803 2.29148L98.6838 2.39293L98.7819 12.1983L98.8797 22.0036H97.5785C96.3791 22.0036 96.2769 22.0801 96.2769 22.976V23.9485H99.9798H103.683V22.976C103.683 22.0807 103.58 22.0036 102.387 22.0036H101.091V17.9304V13.8569L102.078 13.9597C102.986 14.0537 103.182 14.3655 104.485 17.779C106.1 22.0085 106.099 22.0036 105.349 22.0036C104.979 22.0036 104.794 22.3277 104.794 22.976V23.9485H107.756H110.718V22.976C110.718 22.1271 110.587 22.0036 109.682 22.0036C108.689 22.0036 108.571 21.8256 106.938 17.8708L105.232 13.7379L106.354 12.9545C107.957 11.8343 108.497 10.4323 108.497 7.38409C108.497 4.1177 107.948 2.42989 106.551 1.40138C105.539 0.655526 105.214 0.610146 100.877 0.610146H96.2769V1.40008ZM116.347 0.999118C115.602 1.65129 115.795 3.2396 116.643 3.43343C117.531 3.63667 117.595 4.41526 116.807 5.40066C116.238 6.11183 116.35 6.76887 117.041 6.76887C117.235 6.76887 117.727 6.29497 118.134 5.7154C119.968 3.10378 119.823 0.610146 117.837 0.610146C117.262 0.610146 116.591 0.785184 116.347 0.999118ZM48.604 2.93166C49.9386 4.31251 50.5125 7.00225 50.5292 11.9552C50.5477 17.3145 50.0193 19.9174 48.6177 21.3754C47.8346 22.1903 47.4391 22.3446 46.3423 22.2636C43.6376 22.0639 42.4523 18.9486 42.4816 12.1172C42.5127 4.86064 44.005 1.57156 47.0277 2.09732C47.5368 2.18613 48.246 2.56149 48.604 2.93166ZM67.7642 2.6435C69.6346 3.45742 70.133 5.10569 70.2929 11.0012C70.4585 17.1013 70.0515 19.5557 68.6299 21.0344C67.8068 21.8908 67.465 22.0036 65.6946 22.0036H63.691V12.3334C63.691 7.01457 63.802 2.5657 63.9379 2.44707C64.3475 2.08856 66.7759 2.21303 67.7642 2.6435ZM105.122 3.02761C105.559 3.4101 105.754 4.33099 105.849 6.46612C106.053 11.0314 105.528 11.9552 102.731 11.9552H101.091V7.30922C101.091 4.75367 101.216 2.55209 101.368 2.41692C101.812 2.02341 104.468 2.45549 105.122 3.02761ZM6.57298 8.82523C0.595314 11.2213 0.000249895 11.5335 0.00136078 12.2748C0.00284196 13.1302 -0.406333 12.9425 11.7812 17.6828L13.7489 18.4484L13.6327 17.4536C13.5097 16.405 13.4553 16.3778 4.62893 12.9568L2.77746 12.2391L8.23931 10.0965C13.4101 8.06803 13.7012 7.90499 13.7012 7.03726C13.7012 6.53322 13.5764 6.13614 13.4234 6.15559C13.2705 6.17471 10.1878 7.37599 6.57298 8.82523ZM143.744 7.11538C143.854 8.05961 144.119 8.21033 148.951 10.0819C151.752 11.1665 154.043 12.1516 154.043 12.2709C154.043 12.3902 151.71 13.4047 148.859 14.5253C143.955 16.453 143.675 16.6131 143.675 17.4847V18.4059L147.655 16.8449C157.903 12.8258 157.055 13.2501 156.932 12.2009C156.826 11.3069 156.446 11.1036 150.347 8.68618C146.787 7.27518 143.818 6.12058 143.751 6.12058C143.683 6.12058 143.68 6.56822 143.744 7.11538Z" fill="#3F51B5"/>
</svg>
